<mxfile host="app.diagrams.net" modified="2020-06-08T03:06:06.230Z" agent="5.0 (Windows NT 10.0; WOW64) AppleWebKit/537.36 (KHTML, like Gecko) Chrome/83.0.4103.61 Safari/537.36" etag="RhmEaKrzWkCu6kGqeUCW" version="13.1.14" type="github">
  <diagram id="rzX8o1o3KOPRTSoec266" name="Page-1">
    <mxGraphModel dx="1718" dy="1533" grid="1" gridSize="10" guides="1" tooltips="1" connect="1" arrows="1" fold="1" page="1" pageScale="1" pageWidth="850" pageHeight="1100" math="0" shadow="0">
      <root>
        <mxCell id="0" />
        <mxCell id="1" parent="0" />
        <mxCell id="GgZHfX6D0kn685oWg6ef-13" value="" style="edgeStyle=orthogonalEdgeStyle;rounded=0;orthogonalLoop=1;jettySize=auto;html=1;" parent="1" source="GgZHfX6D0kn685oWg6ef-2" target="GgZHfX6D0kn685oWg6ef-12" edge="1">
          <mxGeometry relative="1" as="geometry" />
        </mxCell>
        <mxCell id="GgZHfX6D0kn685oWg6ef-2" value="&lt;p&gt;&lt;b&gt;SMS&lt;/b&gt;&lt;/p&gt;&lt;pre style=&quot;background-color: rgb(255 , 255 , 255) ; font-family: &amp;#34;courier new&amp;#34; ; font-size: 9pt&quot;&gt;&lt;span style=&quot;color: #008000 ; font-weight: bold&quot;&gt;/api/sms/add&lt;/span&gt;&lt;/pre&gt;" style="rounded=1;whiteSpace=wrap;html=1;" parent="1" vertex="1">
          <mxGeometry x="140" y="-85" width="140" height="310" as="geometry" />
        </mxCell>
        <mxCell id="GgZHfX6D0kn685oWg6ef-12" value="&lt;p&gt;&lt;b&gt;Template Injector&lt;/b&gt;&lt;/p&gt;&lt;pre style=&quot;background-color: rgb(255 , 255 , 255) ; font-family: &amp;#34;courier new&amp;#34; ; font-size: 9pt&quot;&gt;&lt;span style=&quot;color: #008000 ; font-weight: bold&quot;&gt;/api/templateinjector&lt;/span&gt;&lt;/pre&gt;&lt;pre style=&quot;background-color: rgb(255 , 255 , 255) ; font-family: &amp;#34;courier new&amp;#34; ; font-size: 9pt&quot;&gt;&lt;span style=&quot;color: #008000 ; font-weight: bold&quot;&gt;/v2/retrievetemplate&lt;/span&gt;&lt;/pre&gt;" style="rounded=1;whiteSpace=wrap;html=1;" parent="1" vertex="1">
          <mxGeometry x="540" y="-90" width="170" height="310" as="geometry" />
        </mxCell>
        <mxCell id="GgZHfX6D0kn685oWg6ef-10" value="&lt;p&gt;&lt;b&gt;&lt;font style=&quot;font-size: 15px&quot;&gt;REQUEST&lt;/font&gt;&lt;/b&gt;&lt;/p&gt;&lt;p&gt;Headers contains&lt;/p&gt;&lt;p&gt;[application-id,region-id,user-guid]&lt;/p&gt;&lt;p&gt;&lt;br&gt;&lt;/p&gt;&lt;p&gt;Request Body contains&lt;/p&gt;&lt;p&gt;&lt;br&gt;&lt;/p&gt;&lt;p&gt;{&lt;/p&gt;&lt;p&gt;&quot;templateName&quot;&lt;/p&gt;&lt;p&gt;&quot;phoneNumber&quot;&lt;/p&gt;&lt;p&gt;&quot;templateDataFields&quot;()&lt;/p&gt;&lt;p&gt;}&lt;/p&gt;&lt;p style=&quot;font-size: 15px&quot;&gt;&lt;br style=&quot;text-align: left&quot;&gt;&lt;/p&gt;" style="text;html=1;strokeColor=none;fillColor=none;align=center;verticalAlign=middle;whiteSpace=wrap;rounded=0;" parent="1" vertex="1">
          <mxGeometry x="30" y="80" width="40" height="30" as="geometry" />
        </mxCell>
        <mxCell id="GgZHfX6D0kn685oWg6ef-11" value="" style="endArrow=classic;html=1;" parent="1" target="GgZHfX6D0kn685oWg6ef-2" edge="1">
          <mxGeometry width="50" height="50" relative="1" as="geometry">
            <mxPoint x="80" y="70" as="sourcePoint" />
            <mxPoint x="130" y="20" as="targetPoint" />
          </mxGeometry>
        </mxCell>
        <mxCell id="GgZHfX6D0kn685oWg6ef-14" value="&lt;div&gt;templateName = &quot;FordPass-AP-M21&quot;&lt;/div&gt;&lt;div&gt;templateType = &quot;SMS&quot;&lt;/div&gt;&lt;div&gt;templateDataFields = {HashMap@12733}&amp;nbsp; size = 1&lt;/div&gt;&lt;div&gt;&amp;nbsp;&quot;passCode&quot; -&amp;gt; {RequestTemplateData@12764} &quot;RequestTemplateData(dataField=12345, forceOverrideFlag=false)&quot;&lt;/div&gt;" style="text;html=1;strokeColor=none;fillColor=none;align=center;verticalAlign=middle;whiteSpace=wrap;rounded=0;" parent="1" vertex="1">
          <mxGeometry x="280" y="-90" width="230" height="160" as="geometry" />
        </mxCell>
        <mxCell id="GgZHfX6D0kn685oWg6ef-19" value="&lt;b&gt;BESPOKE&lt;/b&gt;" style="rounded=1;whiteSpace=wrap;html=1;" parent="1" vertex="1">
          <mxGeometry x="110" y="450" width="160" height="370" as="geometry" />
        </mxCell>
        <mxCell id="GgZHfX6D0kn685oWg6ef-22" value="User profile" style="shape=parallelogram;perimeter=parallelogramPerimeter;whiteSpace=wrap;html=1;" parent="1" vertex="1">
          <mxGeometry x="830" y="-220" width="120" height="60" as="geometry" />
        </mxCell>
        <mxCell id="GgZHfX6D0kn685oWg6ef-28" value="&lt;b&gt;USER INFO&lt;/b&gt;" style="text;html=1;strokeColor=none;fillColor=none;align=center;verticalAlign=middle;whiteSpace=wrap;rounded=0;" parent="1" vertex="1">
          <mxGeometry x="720" y="10" width="40" height="20" as="geometry" />
        </mxCell>
        <mxCell id="GgZHfX6D0kn685oWg6ef-29" value="AEM" style="shape=parallelogram;perimeter=parallelogramPerimeter;whiteSpace=wrap;html=1;" parent="1" vertex="1">
          <mxGeometry x="930" y="120" width="120" height="60" as="geometry" />
        </mxCell>
        <mxCell id="GgZHfX6D0kn685oWg6ef-31" value="&lt;b&gt;TEMPLATE NAME(&quot;FordPass-AP-M21)&lt;/b&gt;" style="text;html=1;align=center;verticalAlign=middle;resizable=0;points=[];autosize=1;" parent="1" vertex="1">
          <mxGeometry x="720" y="80" width="230" height="20" as="geometry" />
        </mxCell>
        <mxCell id="GgZHfX6D0kn685oWg6ef-34" value="" style="endArrow=classic;html=1;exitX=-0.029;exitY=0.7;exitDx=0;exitDy=0;exitPerimeter=0;entryX=1.036;entryY=0.681;entryDx=0;entryDy=0;entryPerimeter=0;" parent="1" source="GgZHfX6D0kn685oWg6ef-12" target="GgZHfX6D0kn685oWg6ef-2" edge="1">
          <mxGeometry width="50" height="50" relative="1" as="geometry">
            <mxPoint x="375" y="156" as="sourcePoint" />
            <mxPoint x="425" y="106" as="targetPoint" />
          </mxGeometry>
        </mxCell>
        <mxCell id="GgZHfX6D0kn685oWg6ef-35" value="" style="edgeStyle=elbowEdgeStyle;elbow=horizontal;endArrow=classic;html=1;" parent="1" edge="1">
          <mxGeometry width="50" height="50" relative="1" as="geometry">
            <mxPoint x="660" y="-90" as="sourcePoint" />
            <mxPoint x="840" y="-200" as="targetPoint" />
          </mxGeometry>
        </mxCell>
        <mxCell id="GgZHfX6D0kn685oWg6ef-36" value="" style="edgeStyle=elbowEdgeStyle;elbow=horizontal;endArrow=classic;html=1;entryX=1;entryY=0.25;entryDx=0;entryDy=0;" parent="1" source="GgZHfX6D0kn685oWg6ef-22" target="GgZHfX6D0kn685oWg6ef-12" edge="1">
          <mxGeometry width="50" height="50" relative="1" as="geometry">
            <mxPoint x="867" y="-170" as="sourcePoint" />
            <mxPoint x="915" y="-130" as="targetPoint" />
            <Array as="points">
              <mxPoint x="890" y="-160" />
              <mxPoint x="900" y="-158" />
            </Array>
          </mxGeometry>
        </mxCell>
        <mxCell id="GgZHfX6D0kn685oWg6ef-37" value="&lt;b&gt;USER GUID&lt;/b&gt;" style="text;html=1;align=center;verticalAlign=middle;resizable=0;points=[];autosize=1;" parent="1" vertex="1">
          <mxGeometry x="670" y="-170" width="80" height="20" as="geometry" />
        </mxCell>
        <mxCell id="GgZHfX6D0kn685oWg6ef-38" value="" style="edgeStyle=elbowEdgeStyle;elbow=horizontal;endArrow=classic;html=1;" parent="1" target="GgZHfX6D0kn685oWg6ef-29" edge="1">
          <mxGeometry width="50" height="50" relative="1" as="geometry">
            <mxPoint x="710" y="100" as="sourcePoint" />
            <mxPoint x="760" y="50" as="targetPoint" />
          </mxGeometry>
        </mxCell>
        <mxCell id="GgZHfX6D0kn685oWg6ef-39" value="" style="edgeStyle=elbowEdgeStyle;elbow=vertical;endArrow=classic;html=1;entryX=0.871;entryY=1.016;entryDx=0;entryDy=0;entryPerimeter=0;" parent="1" source="GgZHfX6D0kn685oWg6ef-29" target="GgZHfX6D0kn685oWg6ef-12" edge="1">
          <mxGeometry width="50" height="50" relative="1" as="geometry">
            <mxPoint x="730" y="230" as="sourcePoint" />
            <mxPoint x="720" y="173" as="targetPoint" />
            <Array as="points">
              <mxPoint x="790" y="260" />
              <mxPoint x="710" y="180" />
            </Array>
          </mxGeometry>
        </mxCell>
        <mxCell id="7XG5GJR7GElVbcUvFB-Z-1" value="&lt;div&gt;&lt;br&gt;&lt;/div&gt;&lt;div&gt;templateName = &quot;FordPass-AP-M21&quot;&lt;/div&gt;&lt;div&gt;templateType = &quot;SMS&quot;&lt;/div&gt;&lt;div&gt;templateLanguage = &quot;en-IN&quot;&lt;/div&gt;&lt;div&gt;templateContentFields = {LinkedHashMap@16413}&amp;nbsp; size = 5&lt;/div&gt;&lt;div&gt;&amp;nbsp;&quot;timeToLive&quot; -&amp;gt; &quot;10&quot;&lt;/div&gt;&lt;div&gt;&amp;nbsp;&quot;P1&quot; -&amp;gt; &quot;12345&quot;&lt;/div&gt;&lt;div&gt;&amp;nbsp;&quot;phoneNumber&quot; -&amp;gt; &quot;9551873647&quot;&lt;/div&gt;&lt;div&gt;&amp;nbsp;&quot;provider&quot; -&amp;gt; &quot;bespoke&quot;&lt;/div&gt;&lt;div&gt;&amp;nbsp;&quot;externalTemplate&quot; -&amp;gt; &quot;FordPass-AP-M21_en-in&quot;&lt;/div&gt;" style="text;html=1;strokeColor=none;fillColor=none;align=center;verticalAlign=middle;whiteSpace=wrap;rounded=0;" vertex="1" parent="1">
          <mxGeometry x="310" y="70" width="190" height="370" as="geometry" />
        </mxCell>
        <mxCell id="7XG5GJR7GElVbcUvFB-Z-2" value="template info" style="text;html=1;align=center;verticalAlign=middle;resizable=0;points=[];autosize=1;" vertex="1" parent="1">
          <mxGeometry x="812" y="270" width="80" height="20" as="geometry" />
        </mxCell>
        <mxCell id="7XG5GJR7GElVbcUvFB-Z-6" value="" style="endArrow=classic;html=1;exitX=0.393;exitY=1.006;exitDx=0;exitDy=0;exitPerimeter=0;entryX=0.563;entryY=-0.011;entryDx=0;entryDy=0;entryPerimeter=0;" edge="1" parent="1" source="GgZHfX6D0kn685oWg6ef-2" target="GgZHfX6D0kn685oWg6ef-19">
          <mxGeometry width="50" height="50" relative="1" as="geometry">
            <mxPoint x="290" y="320" as="sourcePoint" />
            <mxPoint x="320" y="290" as="targetPoint" />
            <Array as="points">
              <mxPoint x="200" y="290" />
            </Array>
          </mxGeometry>
        </mxCell>
        <mxCell id="7XG5GJR7GElVbcUvFB-Z-10" value="&lt;div&gt;&quot;phoneNumber&quot; -&amp;gt; &quot;9551873647&quot;&lt;/div&gt;&lt;div&gt;&lt;br&gt;&lt;/div&gt;&lt;div&gt;&quot;timeToLive&quot; -&amp;gt; &quot;10&quot;&lt;/div&gt;&lt;div&gt;&quot;P1&quot; -&amp;gt; &quot;12345&quot;&lt;/div&gt;&lt;div&gt;&quot;phoneNumber&quot; -&amp;gt; &quot;9551873647&quot;&lt;/div&gt;&lt;div&gt;&quot;provider&quot; -&amp;gt; &quot;bespoke&quot;&lt;/div&gt;&lt;div&gt;&quot;externalTemplate&quot; -&amp;gt; &quot;FordPass-AP-M21_en-in&quot;&lt;/div&gt;" style="text;html=1;strokeColor=none;fillColor=none;align=center;verticalAlign=middle;whiteSpace=wrap;rounded=0;" vertex="1" parent="1">
          <mxGeometry x="110" y="330" width="40" height="20" as="geometry" />
        </mxCell>
        <mxCell id="7XG5GJR7GElVbcUvFB-Z-11" value="" style="endArrow=classic;html=1;entryX=0.75;entryY=1;entryDx=0;entryDy=0;exitX=0.813;exitY=0;exitDx=0;exitDy=0;exitPerimeter=0;" edge="1" parent="1" source="GgZHfX6D0kn685oWg6ef-19" target="GgZHfX6D0kn685oWg6ef-2">
          <mxGeometry width="50" height="50" relative="1" as="geometry">
            <mxPoint x="290" y="320" as="sourcePoint" />
            <mxPoint x="340" y="270" as="targetPoint" />
          </mxGeometry>
        </mxCell>
        <mxCell id="7XG5GJR7GElVbcUvFB-Z-12" value="&lt;div&gt;code = &quot;100&quot;&lt;/div&gt;&lt;div&gt;message = &quot;Successfully processed&quot;&lt;/div&gt;" style="text;html=1;strokeColor=none;fillColor=none;align=center;verticalAlign=middle;whiteSpace=wrap;rounded=0;" vertex="1" parent="1">
          <mxGeometry x="270" y="380" width="40" height="10" as="geometry" />
        </mxCell>
        <mxCell id="7XG5GJR7GElVbcUvFB-Z-15" value="1" style="text;html=1;align=center;verticalAlign=middle;resizable=0;points=[];autosize=1;" vertex="1" parent="1">
          <mxGeometry x="100" y="40" width="20" height="20" as="geometry" />
        </mxCell>
        <mxCell id="7XG5GJR7GElVbcUvFB-Z-16" value="2" style="text;html=1;align=center;verticalAlign=middle;resizable=0;points=[];autosize=1;" vertex="1" parent="1">
          <mxGeometry x="469" y="-122" width="20" height="20" as="geometry" />
        </mxCell>
        <mxCell id="7XG5GJR7GElVbcUvFB-Z-17" value="3" style="text;html=1;align=center;verticalAlign=middle;resizable=0;points=[];autosize=1;" vertex="1" parent="1">
          <mxGeometry x="732" y="-184" width="20" height="20" as="geometry" />
        </mxCell>
        <mxCell id="7XG5GJR7GElVbcUvFB-Z-18" value="5" style="text;html=1;align=center;verticalAlign=middle;resizable=0;points=[];autosize=1;" vertex="1" parent="1">
          <mxGeometry x="926" y="122" width="20" height="20" as="geometry" />
        </mxCell>
        <mxCell id="7XG5GJR7GElVbcUvFB-Z-19" value="4" style="text;html=1;align=center;verticalAlign=middle;resizable=0;points=[];autosize=1;" vertex="1" parent="1">
          <mxGeometry x="812" y="-38" width="20" height="20" as="geometry" />
        </mxCell>
        <mxCell id="7XG5GJR7GElVbcUvFB-Z-20" value="6" style="text;html=1;align=center;verticalAlign=middle;resizable=0;points=[];autosize=1;" vertex="1" parent="1">
          <mxGeometry x="533" y="231" width="20" height="20" as="geometry" />
        </mxCell>
        <mxCell id="7XG5GJR7GElVbcUvFB-Z-21" value="7" style="text;html=1;align=center;verticalAlign=middle;resizable=0;points=[];autosize=1;" vertex="1" parent="1">
          <mxGeometry x="30" y="300" width="20" height="20" as="geometry" />
        </mxCell>
        <mxCell id="7XG5GJR7GElVbcUvFB-Z-22" value="8" style="text;html=1;align=center;verticalAlign=middle;resizable=0;points=[];autosize=1;" vertex="1" parent="1">
          <mxGeometry x="268" y="308" width="20" height="20" as="geometry" />
        </mxCell>
      </root>
    </mxGraphModel>
  </diagram>
</mxfile>
